<?xml version="1.0" encoding="UTF-8"?>
<svg id="Layer_2" data-name="Layer 2" xmlns="http://www.w3.org/2000/svg" viewBox="0 0 1376.28 3885.11">
  <g id="Layer_1-2" data-name="Layer 1">
    <g>
      <g>
        <polygon points="791 1679.66 791 1828.32 655.76 1828.32 655.76 1663.4 791 1679.66" fill="#eca77f"/>
        <path d="M652.89,1660.17l140.98,16.95v154.07h-140.98v-171.02ZM788.13,1682.2l-129.51-15.57v158.82s129.51,0,129.51,0v-143.25Z" fill="#87402c"/>
      </g>
      <g>
        <path d="M817.49,1791.27c.26-4.77,1.73-76.04-1.11-76.67-2.84-.63-53.64,35.52-56.79,40.61-3.15,5.09-5.48,65.66-4.81,70.97.67,5.3,62.71-34.91,62.71-34.91Z" fill="#f4a60b"/>
        <path d="M759.59,1755.21c1.09-1.75,7.84-7.2,16.31-13.54-9.04,12.65-10.15,32.71-4.7,43.59,9.29,14.88,36.36-18.83,46.89-30.98-.08,17.53-.47,34.73-.6,36.99,0,0-62.03,40.21-62.71,34.9-.67-5.3,1.66-65.87,4.81-70.97Z" fill="#cc8200"/>
        <path d="M753.86,1829.17l-1.73-1.06-.2-1.57c-.43-3.35,1.27-66.46,5.21-72.83,2.07-3.35,53.93-43.08,59.85-41.91,2.79.62,4.06.9,3.96,39.59-.05,18.27-.47,37.48-.61,40.04l-.08,1.46-1.23.79c-49.2,31.89-60.62,35.77-63.93,35.77-.67,0-1.01-.16-1.26-.27ZM814.48,1718.51c-10.82,6.09-49.82,34.29-52.42,38.17-2.27,4.49-4.78,53.61-4.56,66.59,7.99-3.03,33.81-18.48,57.19-33.59.38-10.7,1.11-59.01-.21-71.16Z" fill="#773600"/>
      </g>
      <g>
        <path d="M713.13,1825.49s3.35-62.16,0-67.42c-3.35-5.26-66.46-44.95-69.33-44.95s-4.3,59.03-4.3,59.03l29.17,43.29,44.47,10.04Z" fill="#f4a60b"/>
        <path d="M681.58,1790.58c21.28,10.64,27.94-9,30.93-33.24.28.28.51.53.63.73,3.34,5.26,0,67.42,0,67.42l-44.47-10.04-29.17-43.29s.36-14.81,1.08-29.59c5.05,19.69,27.61,41.6,41,48.02Z" fill="#cc8200"/>
        <path d="M666.92,1817.99l-30.31-44.99.02-.91c1.5-61.83,4.01-61.83,7.17-61.83,4.75,0,68.45,41.08,71.75,46.27,3.47,5.45,1.46,50.15.44,69.11l-.18,3.39-48.89-11.04ZM642.39,1771.31l28.02,41.59,40.04,9.04c1.44-28.44,1.92-58.77.29-62.29-3.3-4.47-53.31-36.26-65.29-42.66-1.27,7.7-2.49,31.95-3.05,54.33Z" fill="#773600"/>
      </g>
      <g>
        <path d="M1181.94,2507.3c-13.63,21.51-50.2,73.15-63.11,73.15-12.91,0-78.89-55.95-83.19-62.04-4.3-6.09,40.88-78.09,53.07-81.18,12.19-3.09,93.24,70.07,93.24,70.07Z" fill="#f4a60b"/>
        <path d="M1143.44,2474.04c20.39,16.91,38.5,33.26,38.5,33.26-13.63,21.51-50.2,73.15-63.11,73.15-4.97,0-17.84-8.32-32.01-18.88,25.98-22.44,47.56-56.07,56.62-87.53Z" fill="#cc8200"/>
        <path d="M1033.29,2520.07c-1.25-1.78-1.08-4.37.62-8.96,6.87-18.59,41.78-73.53,54.09-76.65,12.61-3.27,76.58,53.32,95.86,70.72l1.8,1.62-1.3,2.04c-.47.74-47.67,74.49-65.54,74.49-14.58,0-81.22-57.14-85.54-63.26ZM1089.41,2440.02c-10.77,2.73-51.48,67.89-51.21,77.04,6.22,7.8,70,60.54,80.63,60.54,9.56,0,40.63-40.54,59.39-69.78-38.58-34.69-81.84-68.98-88.81-67.79Z" fill="#773600"/>
      </g>
      <g>
        <g>
          <path d="M961.52,1770.72c49.73,2.65,78.42,20.74,107.1,57.6,28.69,36.85,137.7,179.26,195.08,222.81,57.38,43.55,101.36,77.02,109.01,133.44,7.65,56.42-50.68,245.76-92.76,292.62-42.07,46.86-109.02,58.33-170.22,10.52-56.49-44.13-51.64-120.49-20.08-159.7,31.56-39.21,73.36-104.23,77.8-115.71-35.72-25.82-112.22-152.66-159.08-147.09-46.86,5.57-80.4-128.31-80.4-128.31l33.54-166.17Z" fill="#fff"/>
          <path d="M1195.5,2146.76c0,22.95-9.26,59.32-20.73,82.27-40.16,86.06-132.7,186.47-24.02,254.83,42.35,26.64,105.42,16.01,144.76-29.02-5.32,9.13-10.56,16.77-15.56,22.34-42.07,46.86-109.02,58.33-170.22,10.52-56.49-44.14-51.64-120.49-20.08-159.7,31.56-39.21,73.36-104.23,77.8-115.71-35.72-25.82-112.22-152.66-159.08-147.09-20.97,2.49-39.25-22.95-53.08-51.81,33.35-5.97,96.34,32.75,140.22,84.39,38.37,45.15,79.23,67.4,99.98,48.98Z" fill="#d3dce0"/>
          <path d="M1107.97,2489.96c-31.47-24.58-41.08-55.79-43.61-77.63-3.63-31.48,4.98-63.67,23.05-86.12,30.05-37.33,69.06-97.53,76.49-112.99-12.5-9.8-28.89-29.81-47.73-52.81-34.95-42.68-78.39-95.72-107.47-92.35-48.9,5.95-82.13-124.89-83.52-130.46l-.16-.63,34.16-169.23,2.47.13c47.69,2.54,78.31,19,109.21,58.7l5.9,7.6c36.91,47.57,134.96,173.94,188.64,214.69,57.16,43.37,102.3,77.63,110.12,135.33,7.99,58.88-52.29,249.06-93.46,294.92-25.01,27.85-56.88,41.95-90,41.94-28.29,0-57.5-10.29-84.12-31.08ZM930.92,1936.81c2.55,9.79,34.84,130.45,77.12,125.54,32.07-3.82,74.88,48.36,112.59,94.41,18.72,22.86,36.4,44.45,48.51,53.2l1.79,1.3-.8,2.07c-4.51,11.66-46.43,76.95-78.24,116.47-16.87,20.96-25.23,52.33-21.82,81.86,2.4,20.76,11.53,50.41,41.43,73.77,56.12,43.83,121.4,39.85,166.32-10.18,40.55-45.16,99.91-232.37,92.05-290.31-7.51-55.34-51.81-88.97-107.91-131.53-54.28-41.21-152.67-168.01-189.71-215.74l-5.9-7.59c-29.6-38.02-57.57-53.47-102.52-56.35l-32.92,163.08Z" fill="#5e6b77"/>
        </g>
        <path d="M1169.98,2213.67c.11-.21,6.02-11.06,12.94-24.91,10.74-22.6,12.59-42,12.59-42-8.91,24.39-30.35,63.76-30.56,64.16l5.04,2.75Z" fill="#5e6b77"/>
      </g>
      <g>
        <path d="M1039.29,2390.97c1.12,7.8-19.44,33.62-67.25,30.27-47.81-3.34-43.99-28.21-43.99-28.21l24.39-65.03,74.11,39.21,12.74,23.76Z" fill="#af0000"/>
        <path d="M971.84,2424.1c-20.28-1.42-34.27-6.79-41.59-15.95-6.16-7.71-5.08-15.25-5.03-15.57l25.68-68.65,77.77,41.14,13.16,24.53.31.95c.53,3.71-1.95,8.94-6.65,14-4.54,4.89-21.25,19.85-55.13,19.85-2.72,0-5.56-.1-8.5-.3ZM1024.43,2369.34l-70.45-37.27-23.11,61.63c-.09,1.15-.15,5.95,3.99,11.03,4.35,5.34,14.36,12.05,37.38,13.65,37.1,2.63,54.56-12.91,59.04-17.73,3.74-4.02,5.1-7.38,5.19-8.88l-12.03-22.43Z" fill="#420000"/>
      </g>
      <g>
        <path d="M400.2,2371.14c0,14.24,21.99,45.32,86.54,48.19,59.29.96,53.74-11,53.74-11,0,0-2.58-13.39-3.53-14.82-.96-1.43-23.9-55.94-23.9-55.94l-41.1-28.68-71.74,62.25Z" fill="#af0000"/>
        <path d="M486.61,2422.19c-67.46-3-89.28-35.69-89.28-51.06l.63-2.53,73.79-63.35,43.61,30.43.33.76c8.95,21.26,22.65,53.61,23.65,55.47.31.47,1.27,1.9,3.93,15.67.28.89.57,2.78-.84,4.97-4.18,6.44-20.69,9.69-49.2,9.69-2.14,0-4.34-.02-6.61-.05ZM537.87,2409.53l-.21-.66c-1.12-5.8-2.66-12.78-3.11-13.78-.95-1.42-15.18-35.11-23.83-55.65l-38.59-26.93-69,59.87c1.28,13.57,22.98,41.37,83.66,44.07,47.92.84,50.85-6.93,51.08-6.93h0Z" fill="#420000"/>
      </g>
      <g>
        <path d="M849.64,1765.25c-7.17,0-22.95-7.65-27.73-9.08-4.78-1.43-24.39,63.11-96.11,58.81-71.72-4.3-82.18-56.43-86.06-56.42-3.89.02-35.38,9.09-59.29,7.89-19.6,20.32-112.84,495.58-112.84,495.58,0,0-31.8,125.75,19.13,157.31,52.36,53.07,471.91,3.35,471.91,3.35,0,0,43.99-23.91,33.47-96.58-10.52-72.68-86.78-252.89-90.49-319.85-3.7-66.96-10.4-225.7-10.4-225.7l-41.6-15.3Z" fill="#fff"/>
        <path d="M467.61,2262.02s17.78-90.65,39.45-194.47c1.99,70.91,4.01,142.45,22.23,211.68,44.15,132.45,215.67,132.2,341.02,152.41-126.08,11.34-346.57,25.19-383.57-12.32-50.92-31.56-19.13-157.3-19.13-157.3Z" fill="#d3dce0"/>
        <path d="M484.94,2421.59c-51.71-32.56-21.42-155.06-20.14-160.12,3.81-19.44,93.63-476.33,113.59-497.02l.9-.94,1.31.06c17.17.86,38.72-3.78,50.29-6.27,5.21-1.12,7.56-1.62,8.84-1.62,2.52.07,3.56,2.06,5.9,6.58,6.56,12.71,23.99,46.47,80.34,49.85,54.55,3.25,77.93-34.41,87.93-50.49,3.91-6.28,5.68-9.17,8.83-8.2,1.47.44,3.93,1.44,6.87,2.63,6.19,2.52,15.55,6.33,20.04,6.33l44.38,16.14.08,1.91c.07,1.59,6.73,159.48,10.4,225.66,1.97,35.64,25.02,104.59,47.3,171.28,19.68,58.87,38.26,114.48,43.16,148.31,10.69,73.8-33.07,98.5-34.94,99.51l-1.03.33c-11.03,1.31-181.34,21.21-315.99,21.21-74.95,0-138.85-6.17-158.06-25.15ZM989.28,2326.5c-4.82-33.32-23.33-88.69-42.92-147.32-22.41-67.04-45.58-136.37-47.59-172.78-3.45-62.25-9.55-205.58-10.32-223.82l-39.35-14.48c-5.66-.23-14.51-3.83-21.67-6.74-2.04-.83-3.83-1.56-5.16-2.05-.85,1.1-2.24,3.33-3.49,5.34-10.54,16.95-35.18,56.65-93.14,53.18-59.62-3.58-78.13-39.44-85.11-52.94-.63-1.21-1.31-2.54-1.79-3.34-1.46.25-4.08.82-6.64,1.37-11.5,2.48-32.6,7.03-50.31,6.45-16.96,25.45-85.86,363.2-111.4,493.36-.31,1.23-30.71,124.06,17.86,154.16l.53.42c49.92,50.59,451.15,4.65,468.96,2.58,4.79-2.85,41.18-26.86,31.55-93.39Z" fill="#773600"/>
      </g>
      <g>
        <g>
          <path d="M380.83,3715.06c.72,27.97,2.87,90.15-6.45,109.73-7.17,15.06-26.54,28.69-65.26,38.73-28.17,7.3-59.53,19.84-112.6,18.65-21.1-.48-94.67-19.36-93.23-93.95,1.43-74.59,77.46-124.79,80.33-124.07,2.87.72,1.43,52.11,12.91,77.69,25.82,1.55,53.07-34.31,58.28-59.05,39.25.72,126.04,32.27,126.04,32.27Z" fill="#f4a60b"/>
          <path d="M281.31,3804.05c-27.42,16.62-73.18-9.13-89.28-46.68-13.45-32.48-14.88-74.59-9.25-93.01.39-.16.7-.26.82-.23,2.87.72,1.43,52.11,12.91,77.69.78.05,1.57-.04,2.35-.07,13.76,36.38,39.2,62.49,82.44,62.28Z" fill="#ffb85a"/>
          <path d="M205.84,3760.24c-1.42-4.07-7.11-10.28-9.75-19.49.15.35.27.74.43,1.08,25.82,1.55,53.07-34.31,58.28-59.05,7.84.14,8.37-.15,18.93,1.96-13.39,40.16-33.44,63.55-67.89,75.5Z" fill="#cc8200"/>
          <path d="M173.03,3670.52c-46.77,37.81-66.17,112.47-39.63,160.25,22.95,42.08,77.79,48.6,122.84,46.47-16.69,3.25-36.03,5.47-59.73,4.93-21.1-.48-94.67-19.36-93.23-93.95,1.12-58.52,48.15-102.01,69.75-117.7Z" fill="#cc8200"/>
          <path d="M196.45,3885.04c-19.41-.44-97.53-19.06-96.04-96.88,1.19-61.91,52.18-105.68,67.78-117.62,13.03-9.97,15.37-9.38,16.11-9.18,3.02.76,3.22,3.51,4.35,18.78,1.25,17.09,3.12,42.62,9.78,58.88,23.9-.23,48.76-34.03,53.56-56.83l.49-2.32,2.37.05c39.28.72,123.4,31.15,126.97,32.45l1.84.67.16,6.24c.81,30.58,2.33,87.5-6.85,106.75-8.24,17.31-30.83,30.86-67.14,40.28-4.99,1.29-10.09,2.75-15.39,4.27-22.74,6.51-50.75,14.55-91.05,14.55-2.27,0-4.59-.03-6.95-.08ZM257.05,3685.73c-6.58,25.69-33.62,60.65-60.71,58.97l-1.73-.11-.71-1.58c-7.65-17.06-9.65-44.38-10.98-62.46-.35-4.78-.71-9.68-1.09-12.52-13.44,7.73-74.4,53.85-75.68,120.24-1.41,73.12,72.15,90.61,90.43,91.03,43.18,1.04,71.4-7.11,96.28-14.24,5.35-1.53,10.49-3.01,15.53-4.31,34.58-8.96,55.91-21.48,63.39-37.18,8.57-18.01,7.03-76.17,6.29-104.13l-.06-2.33c-12.45-4.43-84.88-29.69-120.96-31.37Z" fill="#773600"/>
        </g>
        <path d="M286.71,3802.21c-60.25,3.52-77.96-38.77-87.55-61.48l-5.29,2.23c7.45,17.64,21.26,50.35,58.43,61.42,18.62,5,34.41-2.17,34.41-2.17Z" fill="#773600"/>
        <g>
          <path d="M411.67,3672.98c-4.26,9.34-21.52,49.25-28.69,52.12-7.17,2.87-49.25,5.74-77.46-4.3-28.21-10.04-52.6-26.78-55.47-31.08-2.87-4.3,8.13-56.9,8.13-56.9l153.48,40.16Z" fill="#f9c055"/>
          <path d="M258.19,3632.82l53.08,13.89c.01,26.25.71,65.21,26.4,80.37-11.03-.92-22.41-2.82-32.14-6.29-28.21-10.04-52.6-26.78-55.47-31.08-2.87-4.3,8.13-56.9,8.13-56.9Z" fill="#edac43"/>
          <path d="M304.56,3723.5c-27.29-9.71-53.22-26.69-56.89-32.19-2.93-4.38,2.58-34.54,7.71-59.07l.62-2.95,159.69,41.79-3.01,6.64c-15.18,33.84-23.21,47.87-28.64,50.04-3.72,1.49-15.2,2.87-29.27,2.87-15.91,0-35.13-1.77-50.21-7.14ZM260.39,3636.36c-4.8,23.36-8.92,48.5-7.94,51.76,2.26,3.4,25.71,19.89,54.04,29.97,27.98,9.95,69.47,6.72,75.43,4.34,2.46-.99,8.89-9.95,25.53-47.06l.21-.47-147.27-38.54Z" fill="#775622"/>
        </g>
      </g>
      <g>
        <g>
          <path d="M904.15,3729.88c8.73-.03,27.73,6.7,43.03,20.08,15.3,13.39,87.02,56.9,125.75,18.65,29.17-29.17,14.82-88.3,14.82-88.3,0,0,66.22,41.2,49.73,120.81-16.49,79.61-103.99,76.74-118.34,76.74s-105.5-3.57-128.02-3.59c-24.03-.02-119.41,9.32-139.49-26.54-7.53-13.45-2.11-32.2-.24-49.48,3.11-28.81,8.37-54.79,15.54-54.5,11.47.47,137.22-13.88,137.22-13.88Z" fill="#f4a60b"/>
          <path d="M900.41,3730.31c2.37-.27,3.74-.43,3.74-.43,8.74-.03,27.73,6.7,43.03,20.08,15.3,13.39,87.02,56.9,125.75,18.65.26-.26.49-.53.73-.79-3.56,12.96-33.99,31.84-71.02,21.47-38.41-10.75-83.74-51.15-102.23-58.98Z" fill="#ffb85a"/>
          <path d="M751.38,3798.26c3.11-28.81,8.37-54.79,15.54-54.5,5.4.22,36.12-2.84,67.12-6.14-69.51,14.5-62.57,93.5-26.96,103.67,30.94,11.9,59.18,4.19,94.67,5.26,50.07,1.5,108.38,8.14,155.39,4.78,51.97-4.33,77.78-41.36,82.37-86.39,1.11,11.02.67,23.07-2.05,36.19-16.49,79.61-103.99,76.74-118.34,76.74s-105.5-3.58-128.02-3.59c-24.03-.02-119.41,9.32-139.49-26.54-7.53-13.45-2.11-32.2-.24-49.48Z" fill="#cc8200"/>
          <path d="M1020.57,3880.74h-1.44c-6.44,0-27.64-.7-52.18-1.51-29.72-.97-63.41-2.08-75.84-2.08h-.05c-3.24,0-7.78.17-13.26.37-35.87,1.35-110.49,4.14-128.69-28.38-6.39-11.4-4.22-25.94-2.11-40,.56-3.75,1.12-7.51,1.52-11.2,6.21-57.57,15.17-57.13,18.51-57.05,9.06.59,93.37-8.91,136.78-13.86h.31s.05-.01.08-.01c10.38,0,29.96,7.76,44.85,20.79,11.61,10.15,83.37,56.76,121.83,18.78,27.67-27.67,14.21-85.01,14.06-85.59l-1.65-6.82,5.95,3.7c.68.43,67.73,43.19,51.02,123.83-10.57,51-52.63,79.04-118.51,79.03h-1.2ZM1074.94,3770.65c-38.43,37.96-109.49-.87-129.65-18.53-15.06-13.18-33.27-19.32-40.98-19.37-6.99.8-122.07,13.89-136.83,13.89-.26,0-.5.04-.69-.01-1.83,0-7.97,9.48-12.55,51.94-.41,3.76-.98,7.6-1.55,11.43-2.05,13.7-3.99,26.66,1.44,36.35,16.49,29.45,88.76,26.74,123.48,25.45,5.57-.21,10.18-.38,13.48-.38h.05c12.52,0,46.26,1.12,76.02,2.09,23.47.77,45.65,1.5,51.99,1.5h1.47c.41,0,.81,0,1.22,0,63.73,0,102.74-25.73,112.84-74.46,12.99-62.7-27.25-101.37-42.68-113.59,2.88,17.07,7.04,59.62-17.04,83.7Z" fill="#773600"/>
        </g>
        <path d="M1054.01,3800.88c18.12-12.51,23.4-28.59,25.93-36.27l-5.45-1.79c-3.53,10.76-12.93,39.32-61.2,47.31,0,0,19.88,3.66,40.72-9.25Z" fill="#773600"/>
        <g>
          <path d="M912.75,3661.99s.48,68.37,0,71.24c-.48,2.87-31.08,19.6-72.68,21.51-41.6,1.91-73.63-8.13-73.15-8.13s-3.35-72.67-3.35-72.67l149.18-11.95Z" fill="#f9c055"/>
          <path d="M763.57,3673.94l64.08-5.13c.12,32.9,1.98,68.02,29.74,84.23-5.51.81-11.28,1.43-17.32,1.71-41.6,1.91-73.63-8.13-73.15-8.13s-3.35-72.68-3.35-72.68Z" fill="#edac43"/>
          <path d="M764.48,3748.13l-2.7-4.38h2.28c-.29-9.92-2.07-45.39-3.35-69.66l-.15-2.79,155.04-12.41.02,3.08c.08,11.47.46,68.77-.04,71.74-.97,5.8-35.34,22.06-75.37,23.91-3.46.16-6.9.23-10.31.23-34.14,0-63.99-7.39-65.42-9.71ZM909.9,3665.09l-143.32,11.49c2.39,45.54,3.19,61.78,3.14,67.9,7.01,1.99,34.72,9.01,70.21,7.4,37.12-1.71,65.9-15.71,70.01-19.64.26-5.48.12-41.47-.05-67.15Z" fill="#775622"/>
        </g>
      </g>
      <g>
        <path d="M769.35,1809.62s-70.74-1.75-72.23.61c-1.49,2.35-4.5,162.5-4.14,167.29.36,4.79,35.79,27.67,38.57,28.7,2.78,1.02,39.32-25.81,39.38-28.2.06-2.39,1.16-163.06-1.58-168.39Z" fill="#f4a60b"/>
        <path d="M697.12,1810.22c.35-.55,4.45-.87,10.5-1.05,2.99,47.65-5.07,105.11,1.63,150.77,1.8,12.25,8.26,23.57,20.14,32.89,7.6,3.25,25.28-7.89,41.55-15.91,0,.57,0,.99-.01,1.08-.06,2.39-36.59,29.23-39.38,28.2-2.78-1.03-38.21-23.9-38.57-28.7-.36-4.79,2.64-164.94,4.13-167.29Z" fill="#cc8200"/>
        <path d="M730.56,2008.9c-.39-.14-39.87-23.59-40.44-31.17-.11-1.45,2.21-165.32,4.57-169.05,1.05-1.66,2.36-3.72,74.73-1.94l1.71.04.78,1.52c3.26,6.35,1.93,168.19,1.89,169.78-.11,4.23-23.53,20.33-28.23,23.52-9.31,6.32-12.32,7.55-13.85,7.55-.49,0-.82-.12-1.16-.25ZM766.98,1812.43c-28.77-.68-60.07-.86-67.31.05-1.59,17.56-3.91,163.74-3.91,164.41,1.91,4.21,30.48,23.34,36.18,26.34,5.32-2.18,32.21-21.55,36.13-26.05.2-13.16.85-146.47-1.1-164.75Z" fill="#773600"/>
      </g>
      <g>
        <path d="M342.33,2454.04c24.87,17.04,50.69,34.61,45.67,56.85-5.02,22.23-49.49,69.93-55.94,73.15-6.46,3.23-56.3-21.88-72.08-43.75-1.79-30.12,82.35-86.25,82.35-86.25Z" fill="#f4a60b"/>
        <path d="M291.98,2493.4c15.76,28.13,38.45,50.92,70.43,58.92-13.13,16.08-26.97,30.03-30.35,31.72-6.46,3.23-56.3-21.88-72.08-43.75-.77-12.99,14.45-30.82,32-46.9Z" fill="#cc8200"/>
        <path d="M257.66,2541.97l-.49-.68-.05-.83c-1.87-31.4,80.13-86.47,83.62-88.8l1.95-.84,1.6,1.1c25.53,17.49,51.94,35.58,46.51,59.61-5.15,22.81-49.57,71.14-57.45,75.09-.68.34-1.59.51-2.7.51-13.95,0-59.05-25.83-72.99-45.14ZM262.83,2539.31c15.78,20.98,61.84,43.63,67.95,42.16,5.1-2.55,49.5-49.41,54.43-71.22,4.49-19.88-19.34-36.61-42.89-52.74-23.78,16.09-79.5,58.75-79.49,81.8Z" fill="#773600"/>
      </g>
      <g>
        <path d="M475.74,2499.17c-22.95-6.69-89.89-10.52-104.71,4.78-14.82,15.3-54.03,60.81-52.59,80.37,1.43,19.56,58,99.92,107.65,113.77,68.3-24.88,49.65-198.92,49.65-198.92Z" fill="#f9c89f"/>
        <path d="M476.12,2503.24c.5,5.7,1.34,17.06,1.73,31.6-17.28-1.37-36.06-4.11-51.84-8.89,15.34-15.34,30.71-21.53,50.11-22.71Z" fill="#eca77f"/>
        <path d="M330.72,2554.05c4.21,41.65,59.18,101.96,105.7,138.68-3.21,2.18-6.63,4.01-10.34,5.36-49.65-13.85-106.22-94.21-107.65-113.77-.54-7.39,4.73-18.5,12.29-30.27Z" fill="#eca77f"/>
        <path d="M425.32,2700.86c-49.61-13.84-108.14-94.43-109.74-116.33-1.82-24.85,52.87-81.98,53.4-82.57,16.79-19.05,83.81-12.47,107.58-5.55l1.85.54.2,1.91c.77,7.2,18.09,176.57-51.52,201.92l-.87.31-.89-.24ZM373.09,2505.95c-17.69,17.78-53.07,60.8-51.8,78.16,1.28,17.53,56,96.6,104.66,110.96,60.66-23.55,48.84-174.72,47.11-193.66-25.2-6.57-84.44-11.08-99.98,4.54Z" fill="#87402c"/>
      </g>
      <g>
        <g>
          <path d="M997.62,2601.26c57.82,137.48,21.28,294.58,21.28,488.89,0,244.8,47.81,588.1-162.56,612.01-182.52,20.74-193.16-116.66-183.6-309.83,9.56-193.16,51.64-462.83,30.12-523.08-23.43,146.31-114.11,579.57-140.57,666.51-26.78,87.98-121.92,196.51-252.93,147.26-143.3-53.87-134.35-210.38-28.69-466.65,122.89-298.06,126.45-492.54,177.14-635.91,200.82,20.08,539.81,20.8,539.81,20.8Z" fill="#f9c055"/>
          <path d="M688.41,2787.47c13.37,10.29,27.54,36.11,27.54,64.8,46.79-11.83,81.58-52.35,96.29-92.32,2.52,51.08-7.52,68.23-52.57,95.29-22.95,51.64-20.95,207.16-33.83,303.27-9.89,140.57-43.42,268.95-22.27,413.1,5.98,11.72,14.7-45.18,26.54-64.55,11.48,57.37,11.48,123.59,57.38,158.02,97.54,68.85,143.44-77.69,149.18-158.02,12.91,40.16,24.43,131.87,56.9,75.06.51.51-15.74,34.88-15.26,35.31-25.15,46.85-63.62,78.07-121.96,84.7-182.52,20.74-193.16-116.66-183.6-309.83,9.56-193.16,51.64-462.83,30.12-523.08-1.06-11.51-1.34-46.03-14.45-81.77Z" fill="#edac43"/>
          <path d="M280.66,3216.37c122.89-298.06,126.45-492.54,177.14-635.91,15.98,1.6,32.85,3.07,50.34,4.43-39.2,119.65-74.08,292.62-129.47,471.78-34.2,110.62-63.28,209.92-104.7,318.33-9.16,23.97-29.82,64.48-14.32,71.61,15.5,7.13,22.92-25.6,45.87-60.03-23.67,78.89-71.23,194.82-22.46,249.78,76.74,86.5,169.49,0,229.01-157.98,0,28.69-24.38,112.96-30.12,141.65-7.02,23.42,46.44-17.31,32.67,3.1-8.97,13.3-42,41-62.21,51.92-39.85,21.52-88.31,28.56-143.07,7.97-143.3-53.87-134.35-210.38-28.69-466.65Z" fill="#edac43"/>
          <path d="M720.23,3673.09c-51.36-48.2-57.36-139.49-50.36-280.91,3.51-70.98,11.35-151.64,18.93-229.65,11.48-118.16,22.39-230.42,14.59-278.85-25.89,154-111.89,565.94-138.36,652.91-14.27,46.87-53.54,112.76-117.26,144.16-43.82,21.59-90.72,23.26-139.42,4.95-46.19-17.36-76.97-44.96-94.11-84.39-33.4-76.83-13.13-199.5,63.79-386.04,77.32-187.53,107.44-334.52,131.64-452.62,14.29-69.72,26.63-129.92,45.45-183.16l.75-2.12,2.24.22c198.38,19.84,536.14,20.78,539.53,20.78h1.9s.74,1.76.74,1.76c41.11,97.75,34.86,204.57,27.63,328.27-3.01,51.51-6.13,104.79-6.13,161.73,0,37.43,1.1,76.45,2.26,117.76,6.29,223.37,13.42,476.55-167.37,497.1-12.29,1.4-23.89,2.09-34.85,2.09-43.88,0-77.31-11.23-101.58-34.01ZM459.77,2583.53c-18.28,52.34-30.44,111.7-44.49,180.28-24.25,118.34-54.43,265.62-131.96,453.65-76.28,185.01-96.56,306.26-63.82,381.57,16.49,37.93,46.21,64.52,90.87,81.31,47.17,17.72,92.54,16.12,134.87-4.73,62.08-30.59,100.38-94.9,114.31-140.68,27.28-89.6,117.88-524.98,140.48-666.13l1.77-11.05,3.76,10.54c13.83,38.73,2.31,157.4-11.05,294.81-7.57,77.94-15.4,158.53-18.91,229.37-5.53,111.64-6.33,224.95,48.56,276.45,29.03,27.24,72.17,37.18,131.85,30.39,175.56-19.95,168.51-270.33,162.29-491.23-1.16-41.35-2.27-80.41-2.27-117.92,0-57.11,3.12-110.46,6.14-162.06,7.15-122.24,13.33-227.91-26.46-323.96-27.61-.11-344.81-1.71-535.94-20.58Z" fill="#775622"/>
        </g>
        <path d="M707.38,2872.27c25.07,0,53.06-13.23,75.84-36.08,10.94-10.98,19.61-23.06,25.56-35.3,10.97-23.56,3.45-40.93,3.45-40.93,1.63,22.79-10.74,49.77-33.08,72.17-22.25,22.32-49.64,35.05-73.49,34.37-.33-11.67-1.78-26.48-3.66-40.34-5.25-33.24-13.6-38.69-13.6-38.69,3.47,6.07,11.22,54.12,11.58,81.81l.03,2.64,2.64.18c1.56.11,3.13.16,4.72.16Z" fill="#775622"/>
        <path d="M856.97,3704.95c42.73-9.71,67.84-38.17,80.3-69.43,11.94-25.17,4.17-49.14,4.17-49.14-.95,45.41-23.97,98.94-85.74,112.97l1.27,5.59Z" fill="#775622"/>
        <path d="M811.43,3706.73l1.82-5.44c-55.91-18.69-75.51-49.35-89.02-92.75,0,0,0,22.25,11.54,41.62,14.56,24.42,36.81,43.59,75.65,56.58Z" fill="#775622"/>
        <path d="M371.54,3698.13c36.92-6.38,66.99-30.49,86.78-58.27,13.77-18.04,13.77-37.69,13.77-37.69-14.45,38.72-51.46,81.65-101.53,90.3l.98,5.66Z" fill="#775622"/>
        <path d="M263.07,3661.74l4.49-3.57c-32.1-40.55-19.65-115.42-8.59-145.33,0,0-12.11,15.02-16.17,47.26-3.7,34.17-.92,74.87,20.27,101.63Z" fill="#775622"/>
      </g>
      <g>
        <path d="M987.82,2390.97c-4.49,46.18,9.7,149.01,25.37,233.54-127.28,43.83-517.61,37.72-580.48,6.64,16.36-59.77,47.81-177.1,37.69-229.5,106.48,13.66,371.4,35.51,517.41-10.67Z" fill="#f4a60b"/>
        <path d="M432.71,2631.14c12.67-46.29,34.39-127.11,38.85-185.55,1.3-17.02,1.13-32.13-1.15-43.95,17.16,2.2,89.53,8.33,113.75,10.64-10.29,2.89-19.49,10.05-27.28,19.99-6.24,7.96,118.67,30.32,174.77,36.39-49.18,14-170.05-9.35-197.74,14.93-6.36,5.57,56.68,15.37,116.98,23.84-139.22,10.4-115.33,74.09-90.16,88.29,60.2,39.26,289.12,23.31,452.46,28.8-108.13,27.89-325,57.2-580.48,6.64Z" fill="#cc8200"/>
        <path d="M690.58,2469.03c71.89,0,133.54-3.66,138.97-4h0c-43.07-5.53-289.03,12.32-357.69-26.85l-2.4,4.21c37.79,21.56,136.53,26.63,221.12,26.63Z" fill="#773600"/>
        <path d="M761.98,2508.5c-5.44.19-61.88,6.31-133.74,4.38-54.9-1.47-117.92-6.98-165.57-16.84.42-1.72.79-3.46,1.08-5.22,107.37,20.7,295.89,17.76,298.23,17.68Z" fill="#773600"/>
        <path d="M696.76,2593.73c5.44-.15,62.15,2.41,133.75-4.02,54.7-4.92,117.25-14.37,164.19-27.19-.53-1.7-1.01-3.4-1.41-5.15-105.86,27.4-294.19,36.29-296.53,36.36Z" fill="#773600"/>
        <path d="M431.42,2633.74l-2.15-1.06.63-2.31c14.33-52.38,47.9-175.04,37.64-228.18l-.76-3.95,3.99.51c21.03,2.7,141.56,17.39,270.97,17.39,86.87,0,177.77-6.63,245.19-27.95l4.2-1.33-.43,4.38c-4.52,46.44,10.13,150.67,25.34,232.72l.46,2.46-2.37.82c-57.18,19.69-175.07,31.49-315.34,31.57-.45,0-.88,0-1.33,0-128.84,0-235.67-10.06-266.04-25.07ZM984.57,2395.02c-63.72,19.33-154.64,28.29-270.32,26.63-110.77-1.58-207.72-12.55-240.32-16.63,8.16,55.44-23.33,171.79-37.76,224.52,32.07,13.89,138.21,23.47,261.35,23.47.42,0,.85,0,1.28,0,137.75-.07,253.62-11.44,311.08-30.45-14.66-79.6-28.62-179.14-25.31-227.54Z" fill="#773600"/>
      </g>
      <g>
        <g>
          <path d="M482.43,1778.15c-57.86,6.22-83.67,10.92-122.4,50.17-38.73,39.25-113.85,120.17-156.35,162.6-65.98,65.89-200.82,139.13-200.82,239.54,0,100.41,90.37,268.23,163.52,312.7,73.15,44.47,183.12-12.91,186.47-96.1.48-82.93-130.53-212.29-130.53-212.29,0,0,42.86-37.03,90.37-77.46,56.46-48.04,104.56-84.85,129.09-92.11,37.77-69.02,88.93-184.73,90.37-189.03,1.43-4.3-49.73-98.02-49.73-98.02Z" fill="#fff"/>
          <path d="M177.42,2205.36c27.46-4.06,47.57-10.22,65.95-22.71,72.29-49.13,143.92-142.96,217.34-159.92-5.89,16.48-8.63,23.66-18.92,42.47-24.54,7.27-72.63,44.07-129.09,92.11-31.63,26.91-74.14,63.48-90.37,77.46-16.13-14.08-26.35-23.67-44.91-29.41Z" fill="#d3dce0"/>
          <path d="M27.38,2156.25c-1.21,4.64-2.22,9.3-3,13.97-18.65,113.79,62.36,273.25,177.11,336.37,34.31,20.59,74.62,25.1,114.37,15.43-39.3,35.99-102.09,49.95-149.47,21.15-73.15-44.46-163.52-212.29-163.52-312.7,0-26.52,9.47-51.12,24.52-74.21Z" fill="#d3dce0"/>
          <path d="M164.9,2545.62C89.39,2499.71,0,2328.88,0,2230.47c0-75.5,74.15-135.36,139.57-188.17,23.1-18.65,44.92-36.26,62.08-53.4,23.41-23.37,56.47-58.17,88.45-91.82,25.97-27.33,50.5-53.15,67.89-70.77,39.9-40.43,66.89-44.85,124.13-51.01l1.9-.2.92,1.68c51.76,94.81,50.38,98.94,49.93,100.3-1.52,4.56-52.4,119.75-90.57,189.5l-.56,1.04-1.14.33c-21.11,6.25-63,36.2-128.05,91.54-40.72,34.64-78.43,67.15-88.01,75.43,17.79,17.95,129.63,133.93,129.18,212.25-1.59,39.41-26.53,75.81-66.73,97.37-20.97,11.25-43.58,16.88-65.37,16.88s-41.38-5.26-58.73-15.8ZM529.26,1875.73c-1.63-7.14-29.98-60.67-48.43-94.52-54.53,5.9-80.68,10.54-118.76,49.13-17.35,17.59-41.86,43.38-67.81,70.69-32,33.68-65.09,68.5-88.55,91.93-17.38,17.35-39.31,35.06-62.53,53.81-64.42,52.01-137.44,110.95-137.44,183.71,0,96.94,87.89,265.11,162.14,310.24,33.57,20.4,78.95,19.94,118.4-1.22,38.39-20.58,62.21-55.18,63.71-92.45.47-80.76-128.37-208.95-129.68-210.23l-2.21-2.18,2.35-2.03c.43-.37,43.41-37.5,90.38-77.47,65.46-55.69,106.53-85.1,129-92.32,36.83-67.5,85.84-177.95,89.43-187.08Z" fill="#5e6b77"/>
        </g>
        <path d="M220.2,2236.69l4.27-3.83c-7.09-7.9-14.95-14.39-22.07-19.44-12.04-8.55-24.97-8.05-24.97-8.05.24.11,24.54,11.02,42.77,31.33Z" fill="#5e6b77"/>
      </g>
      <g>
        <path d="M576.62,1763.33c-21.04-2.51-88.31,5.03-88.31,5.03,0,0,16.11,184.79-8.75,227.82-24.86,43.03-51.4,128.14-51.4,128.14,0,0-7.89,148.7-26.54,207.99l30.6,8.13s106.38-72.68,134.35-159.46c27.97-86.78,29.41-314.13,29.41-317s-19.37-100.65-19.37-100.65Z" fill="#c90000"/>
        <path d="M401.63,2332.31c18.65-59.29,26.54-207.99,26.54-207.99,0,0,26.54-85.11,51.4-128.14,24.87-43.03,8.75-227.82,8.75-227.82,0,0,16.66-1.87,36-3.43,8.96,156.12,12.16,214.73-49.18,359.72-15.75,36.75-49.84,156.98-17.33,200.3-2.42,1.75-25.58,15.49-25.58,15.49l-30.6-8.13Z" fill="#af0000"/>
        <path d="M398.68,2334.49l.22-3.04c18.32-58.26,26.33-205.79,26.41-207.28l.12-.7c.27-.86,26.92-85.91,51.65-128.72,24.13-41.76,8.54-224.3,8.38-226.14l-.24-2.79,2.78-.31c2.76-.31,67.83-7.54,88.97-5.03l2.07.25.4,2.04c4.56,23,19.42,98.28,19.42,101.2,0,2.26-1.27,230.16-29.55,317.88-27.95,86.71-134.4,160.21-135.47,160.95l-1.09.74-34.08-9.06ZM491.41,1770.91c1.99,24.23,14.28,185.8-9.36,226.71-23.63,40.9-49.17,121.31-51.03,127.22-.45,8.13-8.29,146.21-25.78,205.46l26.44,7.02c11.17-7.89,106.31-76.98,132.18-157.22,28.01-86.9,29.27-313.87,29.27-316-.26-3.23-11.29-59.65-18.9-98.12-19.78-1.57-70.41,3.6-82.82,4.93Z" fill="#420000"/>
      </g>
      <g>
        <path d="M400.2,2371.14c5.88-2.25,151.04-56.71,190.77-183.43,32.43-103.46,33.79-304.57,13.85-425.7l-41.59.82c19.16,116.43,19.27,317.6-10.59,412.86-33.98,108.39-149.75,156.13-151.01,156.62l-1.43,38.83Z" fill="#f4a60b"/>
        <path d="M401.18,2340.44c5.88-2.25,120.18-34.65,159.91-161.37,32.43-103.45,26.87-294.47,12.13-416.23h-9.99c19.16,116.43,19.27,317.6-10.59,412.86-33.98,108.39-149.75,156.13-151.01,156.62l-.45,8.13Z" fill="#cc8200"/>
        <path d="M398.76,2332.2l.48-1.76,1.35-.81c1.15-.45,115.97-48.45,149.31-154.8,29.36-93.64,29.76-294.5,10.5-411.54l-.54-3.27,47.38-.94.4,2.45c19.94,121.13,19.09,321.62-13.95,427.02-38.7,123.44-176.71,179.24-192.31,185.19l-.17.06-3.41,1.55.95-43.17ZM566.6,1765.63c18.81,118.11,18.1,317.4-11.22,410.91-32.15,102.58-136.09,151.21-150.95,157.69l-1.21,32.63c26.98-10.96,149.32-66.21,185-180.02,32.58-103.91,33.58-301.2,14.17-421.92l-35.79.71Z" fill="#773600"/>
      </g>
      <g>
        <path d="M428.17,2124.32c109.73-79.85,80.31-347.04,79.02-357.88l-39.21,3.94c14.56,68.97,18.29,224.13-39.81,303.17v50.77Z" fill="#f4a60b"/>
        <path d="M428.17,2086.13c86.66-92.16,50.42-305.71,49.13-316.55l-9.32.8c14.56,68.97,18.29,224.13-39.81,303.17v12.58Z" fill="#cc8200"/>
        <path d="M425.3,2072.61l.55-.76c59.77-81.32,52.02-240.67,39.31-300.87l-.66-3.13,45.19-4.55.33,2.8c1.36,11.35,31.9,278.99-80.17,360.54l-4.56,3.32v-57.35ZM471.42,1772.92c12.44,63.03,18.92,219.86-40.38,301.56v44.02c98.17-79.12,76.57-320.15,73.6-348.93l-33.22,3.34Z" fill="#773600"/>
      </g>
      <g>
        <path d="M947.18,1766.68c-18.17-4.78-69.97-8.14-84.63-4.85-14.66,3.29-36.82,303.38-36.82,303.38l46.86,173.87,111.88,105.48,55.1,8.56s-28.33-96.82-24.03-221.62l-21.51-75.31-35.14-113.61-11.72-175.89Z" fill="#c90000"/>
        <path d="M1030.71,2315.21c4.81,24.01,8.87,37.9,8.87,37.9l-55.1-8.56-111.88-105.48-46.86-173.87s3.11-42.14,7.77-95.01c28.97,131.29,43.39,276.05,197.2,345.02Z" fill="#af0000"/>
        <path d="M983.15,2347.25l-112.53-106.09-.59-.56-47.2-175.13.04-.49c.05-.75,5.62-75.92,12.92-150.52,14.95-152.93,22.22-154.56,26.13-155.44,15.37-3.44,68.04.16,85.99,4.88l2,.52,11.83,177.62,35.06,113.35,21.64,75.74-.02.45c-4.24,122.85,23.63,219.74,23.91,220.71l-.21,4.34-58.97-9.39ZM991.29,2057.03l-35.14-113.61-11.69-174.46c-19.93-4.57-68.29-7.25-80.76-4.57-10.03,8.96-26.81,188.87-35.07,300.53l46.52,172.61,110.65,104.31,49.85,7.74c-5.32-20.2-26.67-108.83-22.98-217.75l-21.37-74.81Z" fill="#420000"/>
      </g>
      <g>
        <path d="M1015.55,2131.49l3.35-59.29c-50.68-65.96-57.1-220.86-39.17-302.02l-38.41-5.12c-13.38,117.83-5.19,284.89,74.23,366.43Z" fill="#f4a60b"/>
        <path d="M1015.55,2131.49l.99-17.57c-67.93-61.24-82.82-266.32-64.89-347.48l-10.34-1.38c-13.38,117.83-5.19,284.89,74.23,366.43Z" fill="#cc8200"/>
        <path d="M1013.49,2133.49c-77.2-79.26-89.37-242.46-75.03-368.76l.33-2.9,44.4,5.92-.67,3.05c-17.87,80.87-11.81,233.99,38.65,299.65l.65.85-3.78,66.86-4.55-4.67ZM976.27,1772.62l-32.43-4.33c-13.41,122.03-1.94,277.47,69.22,356.36l2.91-51.54c-50.24-66.6-56.92-218.12-39.71-300.49Z" fill="#773600"/>
      </g>
      <g>
        <path d="M1039.29,2390.97l.29-37.86c-.96-.41-84.63-38.01-141.43-119-51.25-73.08-58.77-298.86-28.28-473.59l-40.34-3.13c-27.46,157.4-32.88,409.38,36.62,500.99,65.6,86.47,168.78,130.75,173.14,132.59Z" fill="#f4a60b"/>
        <path d="M1039.29,2390.97l.02-10.13c-.96-.41-115.24-47.23-167.44-131.25-58.22-93.71-64.36-316.19-33.87-490.93l-8.47-1.27c-27.46,157.4-32.88,409.38,36.62,500.99,65.6,86.47,168.78,130.75,173.14,132.59Z" fill="#cc8200"/>
        <path d="M1038.17,2393.61c-4.38-1.85-108.14-46.28-174.31-133.5-74.02-97.56-62.08-360.44-37.16-503.22l.45-2.57,46.09,3.57-.54,3.11c-29.14,166.98-24.92,396.28,27.8,471.45,55.95,79.78,139.39,117.65,140.21,118.01l1.36.85-.31,43.13-3.58-.85ZM895.8,2235.75c-53.21-75.87-58.04-304.78-29.3-472.63l-34.59-2.68c-26.2,152.61-32.12,405.7,36.53,496.2,58.88,77.61,147.99,120.88,168.02,129.94l.24-31.65c-12.43-5.88-88.05-43.84-140.89-119.18Z" fill="#773600"/>
      </g>
      <g>
        <path d="M1092.29,2528.29c26.01,28.95,26.31,47.08,16.35,65.8-9.54,17.93-51.26,56.66-65.84,61.68-11.71,4.03-47.3,13.67-54.51,20.08-8.96,7.97-61.68,51.64-70.29,32.99-8.61-18.65,51.68-52.18,64.93-63.83,13.47-11.84,28.36-34.22,28.36-34.22,0,0-43.44,10.55-60.3,16.29-14.27,4.86-68.49,52-85.34,38.48-20.94-16.8,50.2-58.56,78.17-67.88,27.97-9.32,45.73-24.38,45.73-24.38,0,0-54.33-5.02-68.68-1.43-14.34,3.59-69.57,33.71-80.33,17.93-10.76-15.78,57.38-47.34,75.31-48.05,17.93-.72,53.07-9.32,53.07-9.32,0,0-46.62-9.32-61.68-7.89-15.06,1.43-55.22,5.12-55.94-5.33-.72-10.45,53.07-26.22,89.65-21.2,36.58,5.02,94.23,3.5,111.17,7.17,16.85,3.65,31.17,13.13,40.16,23.14Z" fill="#f9c89f"/>
        <path d="M965.23,2531.69c-11.24-2.14-45.46-8.37-57.98-7.17-15.06,1.43-55.22,5.12-55.94-5.33-.18-2.6,3.02-5.52,8.48-8.38,2.88,10.66,33.71,1.77,49.5,2.83,26.39,1.78,50.29,6.15,72.86,18.49-5,0-10.69-.44-16.92-.44Z" fill="#eca77f"/>
        <path d="M1017.75,2606.26c-2,2-10.5,4.01-12.51,6.01-12.5,3.1-41.25,10.37-54.24,14.79-14.27,4.86-68.49,52-85.34,38.48-1.73-1.39-2.78-2.97-3.33-4.67,27.52-1.72,53.94-30.23,82.08-41.38,19.03-6.34,48.11-13.24,73.33-13.24Z" fill="#eca77f"/>
        <path d="M1103.85,2542.86c14.2,20.88,12.96,35.86,4.79,51.23-9.54,17.93-51.26,56.66-65.84,61.68-11.71,4.03-47.3,13.67-54.51,20.08-8.62,7.67-57.69,48.32-69.09,34.83,33.23-15.65,44.15-32.56,66.58-45.77,24.4-14.37,52.18-20.61,74.95-39.63,22.77-19.02,53.61-45.72,43.12-82.42Z" fill="#eca77f"/>
        <path d="M840.31,2582.46c17.17,8.55,51.96-16.54,77.98-20.06,18.5-2.5,48.38-.15,78.85,8.62-4.02,0-11.14,6.45-15.16,7.85,4.89-3.31,7.58-5.58,7.58-5.58,0,0-54.33-5.02-68.68-1.43-14.34,3.59-69.57,33.71-80.33,17.93-1.49-2.18-1.42-4.66-.24-7.32Z" fill="#eca77f"/>
        <path d="M922.94,2716c-3.46-.72-6.07-2.78-7.53-5.96-7.53-16.31,25.47-38.99,49.57-55.55,6.96-4.79,12.98-8.92,16.08-11.64,8.71-7.65,18.17-20.03,23.52-27.45-13.14,3.27-40.29,10.18-52.65,14.39-3.97,1.35-11.95,6.7-21.2,12.89-23.83,15.97-53.49,35.85-66.86,25.11-3.89-3.12-5.5-7.28-4.65-12.03,3.84-21.42,60.72-53.15,83.7-60.81,17.84-5.95,31.55-14.35,38.86-19.44-15.32-1.22-49.61-3.54-60.21-.87-3.47.87-9.87,3.54-17.27,6.64-23.97,10.03-56.8,23.78-66.12,10.11-1.48-2.17-2.71-5.8-.2-10.8,8.81-17.51,61.83-41.1,77.76-41.74,10.49-.42,27.25-3.65,39-6.17-14.86-2.62-37.79-6.25-47.22-5.31-22.14,2.1-48.57,3.68-56.41-2.98-1.61-1.37-2.53-3.1-2.66-5.01-.15-2.22.93-4.43,3.21-6.56,11.97-11.18,58.51-21.99,89.69-17.68,19.07,2.62,43.93,3.44,65.86,4.17,19.98.67,37.23,1.24,45.52,3.04,15.86,3.43,31.06,12.19,41.69,24.02h0c23.86,26.56,28.71,46.57,16.75,69.06-9.7,18.23-51.93,57.71-67.44,63.05-2.84.97-7.06,2.28-11.95,3.79-13.68,4.21-36.57,11.27-41.58,15.73-.45.4-43.31,38.29-64.33,38.29-1.03,0-2.02-.1-2.93-.29ZM1090.15,2530.2c-9.7-10.79-24.14-19.11-38.63-22.25-7.79-1.68-24.8-2.25-44.5-2.9-22.07-.74-47.08-1.57-66.45-4.23-31.42-4.32-75.2,7.05-85,16.19-1.18,1.11-1.41,1.81-1.4,1.98,0,.15.03.51.65,1.03,4.65,3.94,22.19,4.49,52.16,1.64,15.27-1.41,60.59,7.55,62.51,7.93l12.65,2.53-12.53,3.06c-1.45.36-35.63,8.68-53.64,9.41-14.22.57-65.14,23.23-72.86,38.58-1.37,2.71-.76,4.15-.18,4.99,6.68,9.79,40.82-4.5,59.16-12.18,7.93-3.32,14.2-5.95,18.1-6.92,14.65-3.66,67.39,1.16,69.63,1.36l6.8.63-5.21,4.41c-.74.63-18.5,15.53-46.67,24.92-25.08,8.35-76.77,39.06-79.87,56.38-.48,2.66.35,4.75,2.59,6.55,10.07,8.06,40.17-12.07,60.08-25.41,9.97-6.68,17.85-11.96,22.54-13.56,16.78-5.71,58.76-15.93,60.54-16.36l7.13-1.73-4.06,6.11c-.62.93-15.26,22.83-28.86,34.79-3.35,2.94-9.5,7.17-16.61,12.06-18.56,12.75-53.1,36.5-47.6,48.41.71,1.55,1.79,2.39,3.49,2.75,12.82,2.69,47.52-23.55,62.29-36.68,5.49-4.88,23.04-10.55,43.7-16.92,4.81-1.49,8.98-2.77,11.78-3.73,14.35-4.94,55.17-43.27,64.24-60.31,8.98-16.88,9.7-33.98-15.96-62.54h0Z" fill="#87402c"/>
      </g>
      <g>
        <path d="M436.12,2528.77c41.95,2.2,74,16.55,86,20.49,21.87,7.17,70.76,40.28,63.11,53.67-7.65,13.39-79.97-32.87-123.83-22.47-5,4.06,44.65,25.72,76.5,42.31,26.62,13.86,56.66,51.64,45.9,60.01-7.96,6.19-48.56-27.73-71.37-37.3-22.82-9.56-56.29-12.91-57.72-12.43-1.43.48,46.38,30.84,58.81,41.36,12.43,10.52,51.16,53.31,34.91,59.53-16.26,6.22-36.34-25.82-55.46-38.73-19.13-12.91-46.86-27.73-50.2-23.43-3.35,4.3,42.07,44.95,41.6,87.98-1.43,6.22-30.6-19.6-39.68-32.99-9.08-13.39-38.84-37.57-38.84-37.57l30.29-160.42Z" fill="#f9c89f"/>
        <path d="M585.73,2597.6c.49,1.99.38,3.79-.5,5.32-7.65,13.39-79.97-32.87-123.83-22.47-.2.16-3.11-.21-3.14,0-.33-12.59,25.44-13.08,57.05-6.28,23.19,4.99,64.01,25.64,70.42,23.42Z" fill="#eca77f"/>
        <path d="M454.83,2633.04l-2.72-2.14c3.32-8.29,32.92-9.53,63.2,3.35,23.38,9.94,56.66,39.63,69.46,37.23,1.84,5.09,1.79,9.16-.96,11.3-7.96,6.19-48.56-27.73-71.37-37.3-22.54-9.45-55.41-12.82-57.6-12.44Z" fill="#eca77f"/>
        <path d="M456.19,2674.39c-5.19-2.49-14.19-2.12-15.7-4.37,4.6-9.72,33.16-4.47,57.73,14.67,18.47,14.39,35.91,34.79,49.91,49.32-16.21,5.73-36.16-25.97-55.17-38.8-11.55-7.79-26.21-16.26-36.77-20.82Z" fill="#eca77f"/>
        <path d="M483.99,2753.09c.21,2.21.38,4.44.36,6.67-1.43,6.22-30.6-19.61-39.69-32.99-9.08-13.39-38.84-37.57-38.84-37.57l-.67-22.59c31.1,20.73,56.41,56.55,78.84,86.48Z" fill="#eca77f"/>
        <path d="M483.25,2763.56c.24,0,.47-.02.68-.06,1.64-.3,2.84-1.46,3.21-3.09l.07-.61c.34-30.71-22.06-60.38-34.1-76.33-2.6-3.44-5.45-7.22-6.85-9.5,6.53,1.1,25.93,10.72,45.08,23.63,6.38,4.31,13.07,11.02,19.54,17.51,13.45,13.5,26.14,26.26,38.55,21.52,3.13-1.19,5.07-3.52,5.61-6.72,2.65-15.58-32.05-51.22-39.68-57.68-6.97-5.89-24.64-17.77-38.85-27.31-4.31-2.9-8.68-5.84-12.22-8.26,11.37,1.49,31.53,4.99,47.02,11.47,8.98,3.77,20.96,11.52,32.55,19.01,22.56,14.59,35.62,22.65,41.69,17.91,1.74-1.36,3.73-3.98,3.29-8.83-1.4-15.37-26.9-44.15-49.63-55.98-9.1-4.74-19.69-9.92-29.94-14.92-15.74-7.69-36.49-17.82-43.34-22.81,23.33-3.63,53.8,7.23,78.56,16.06,23.27,8.29,38.66,13.78,43.22,5.8,1.51-2.65,1.58-5.8.2-9.38-6.55-17.01-47.02-42.58-64.91-48.45-54.68-22.01-86.9-17.76-86.9-17.76,30.42,5.25,55.16,9.83,84.91,23.15,18.69,6.13,55.99,30.68,61.54,45.11.73,1.89.79,3.4.17,4.48-2.18,3.83-21.11-2.94-36.31-8.36-26.87-9.58-60.31-21.51-85.7-15.48l-1.14.56c-1.03.83-1.54,2.06-1.39,3.36.54,4.78,10.84,10.45,48.56,28.87,10.21,4.99,20.76,10.15,29.8,14.85,22.24,11.58,45.46,39.23,46.56,51.41.25,2.74-.76,3.53-1.09,3.79-3.22,2.49-23.12-10.48-35.06-18.2-11.8-7.62-24-15.52-33.45-19.47-22.15-9.28-56.75-13.51-59.74-12.5l-1.69.56-.27,1.8q-.31,2.31,21.49,16.97c14.08,9.46,31.61,21.24,38.34,26.93,11.76,9.95,39.56,41.6,37.74,52.34-.2,1.18-.78,1.85-2,2.32-8.89,3.38-20.87-8.61-32.44-20.22-6.66-6.68-13.55-13.6-20.39-18.21-1.92-1.3-47.2-31.66-54.07-22.81-2.39,3.06.45,6.83,8.05,16.89,12.09,16.02,32.11,42.53,32.92,70.41-6.71-3.18-26.38-20.32-34.42-32.17-9.22-13.58-38.18-37.19-39.4-38.18l-3.62-2.2v6.65c.3.24,29.53,24.07,38.27,36.95,6.66,9.81,32.26,35.18,40.97,35.18Z" fill="#87402c"/>
      </g>
      <g>
        <path d="M975.86,1025.27c69.81,114.23,29.17,217.5,33.95,253.84,4.78,36.34,8.07,65.8,9.09,104.23.99,37.77-3.89,107.13-28.89,151.09-28.96,50.92-100.2,109.97-100.2,109.97,0,0-16.26,55.46-50.68,67.9-34.42,12.43-125.27,26.77-184.56-31.56-63.11-37.29-152.05-61.2-194.12-121.45-42.07-60.24-45.9-169.26-45.9-169.26v-188.38s277.31-285.92,277.31-285.92l146.31-99.93,137.7,209.47Z" fill="#f9c89f"/>
        <path d="M463.21,1151.47c9.99,145.29-69.32,324.88,66.08,427.79,27.42,21.1,62.81,35.16,95.3,53.65,19,10.81,52.47,60.38,143.75,67.79,103.56,8.41,94.48-55.27,134.13-82.48,39.13-26.86,67.77-53.67,80.41-74.85.25.45.53.88.8,1.31-31.82,48.26-93.88,99.71-93.88,99.71,0,0-16.26,55.46-50.68,67.9-34.43,12.43-125.27,26.77-184.56-31.56-63.11-37.29-152.04-61.2-194.12-121.45-42.07-60.24-45.9-169.26-45.9-169.26v-188.38s48.67-50.18,48.67-50.18Z" fill="#eca77f"/>
        <path d="M877.25,1404.5c0,34.43-67.18,43.15-107.34,37.41-23.79-5.38-53.13-19.72-41.88-49.09,11.47,40.16,125.15,43.91,149.22,11.68Z" fill="#eca77f"/>
        <path d="M652.26,1683.39c-19-11.2-39.97-21.02-62.17-31.41-50.55-23.67-102.82-48.14-132.54-90.69-42.08-60.24-46.26-166.31-46.41-170.9v-189.55s278.12-286.76,278.12-286.76l149.16-101.95,139.3,211.91.05.08c52.92,86.59,42.84,168.14,36.83,216.87-2.03,16.42-3.63,29.39-2.48,38.09,5.16,39.18,8.13,67.45,9.11,104.53,1.17,44.59-5.79,111.31-29.27,152.58-27.39,48.15-92.86,104.02-100.2,110.2-2.28,7.37-18.76,56.87-52.21,68.94-16.55,5.98-42.08,11.47-70.5,11.47-38.76,0-82.88-10.23-116.79-43.43ZM836.83,820.17l-143.66,98.12-276.3,284.88v187.12c.03,1.08,4.28,108.87,45.38,167.72,28.83,41.29,80.4,65.43,130.27,88.77,22.45,10.5,43.64,20.43,62.95,31.84l.55.43c56.74,55.82,143.58,44.62,181.57,30.9,32.64-11.79,48.75-65.46,48.9-66l.25-.84.67-.56c.71-.59,71.17-59.3,99.54-109.18,22.89-40.25,29.67-105.74,28.52-149.6-.97-36.83-3.93-64.94-9.06-103.93-1.24-9.43.4-22.72,2.48-39.54,6.31-51.08,15.85-128.27-36.01-213.13l-136.07-206.99Z" fill="#87402c"/>
      </g>
      <g>
        <g>
          <path d="M427.13,1402.44c-6.18,29.88-48.99,31.23-65.48,9.71-16.49-21.52-27.97-53.07-27.97-93.23,0-40.16,62.4-88.21,62.4-88.21l33.71-19.36s-2.79,191.77-2.65,191.1Z" fill="#f9c89f"/>
          <path d="M351.27,1276.23c-.56,45.32-.92,94.68,34.58,119.42,28.69,13.63,40.15-12.53,43.33-34.88l-2.05,41.66c-6.18,29.88-48.99,31.23-65.48,9.71-16.49-21.52-27.97-53.07-27.97-93.23,0-14.06,7.65-29.08,17.6-42.68Z" fill="#eca77f"/>
          <path d="M393.08,1429.63c2.06,0,4.13-.14,6.22-.41,6.74-.88,12.85-3.09,18.06-6.45,12.42-8.66,9.77-20.34,9.77-20.34-4.87,11.68-15.28,19.37-28.57,21.1-13.6,1.77-27.16-3.39-34.64-13.14-12.49-16.29-27.38-45.39-27.38-91.49,0-38.31,60.67-85.47,61.28-85.94l33.39-19.15-2.86-4.98-33.71,19.36c-2.91,2.21-63.84,49.6-63.84,90.7,0,47.71,15.53,77.98,28.57,94.98,7.66,9.99,20.2,15.74,33.7,15.74Z" fill="#87402c"/>
        </g>
        <path d="M406.48,1390.03c8.6.51,12.8-8.09,12.8-8.09-11.08,3.82-20.64,2.93-28.4-2.65-16.13-11.62-25.51-44.78-25.11-88.71l-5.74-.05c-.2,21.99,2.07,75.1,27.5,93.41,5.63,4.05,11.97,6.08,18.95,6.08Z" fill="#87402c"/>
      </g>
      <g>
        <path d="M511.54,1135.31c-19.83,41.41-50.2,124.79-10.76,224.48,18.41,44.16,34.32,76.98,53.27,97.06-38.21,18.06-82.58,27.79-86.16,24.21-3.59-3.59-40.98-177.22-86.16-220.1,22.95-83.76,129.81-125.65,129.81-125.65Z" fill="#2d2d2d"/>
        <path d="M401.01,1220.08c29.14,27.57,38.8,67.35,48.44,107.7,9.31,39,24.98,126.32,68.23,143.47-25.69,8.46-47.33,12.27-49.79,9.81-3.59-3.59-40.98-177.22-86.16-220.1,4.1-14.97,10.91-28.58,19.29-40.87Z" fill="#191919"/>
        <path d="M465.86,1483.09c-1.2-1.2-1.92-3.52-7.65-24.79-13.08-48.57-43.72-162.29-78.45-195.26l-1.25-1.18.46-1.66c23.06-84.17,130.45-127.13,131.53-127.56l6.78-2.66-3.14,6.57c-35.83,74.8-39.42,149.56-10.7,222.14,18.08,43.38,33.96,76.34,52.7,96.2l2.71,2.87-3.57,1.69c-29.3,13.85-67.84,25.06-83.23,25.06-3.07,0-5.22-.45-6.19-1.42ZM498.12,1360.85c-28.06-70.91-25.39-146.77,7.63-219.89-23.58,10.8-101.06,50.9-120.8,119.14,35.38,35.51,65.75,148.25,78.8,196.71,2.8,10.38,5.24,19.47,6.23,22.07,6.56,1.28,43.88-6.84,79.31-22.98-18.18-20.69-33.69-53.08-51.18-95.05Z"/>
      </g>
      <path d="M795.09,1446.09c31.34,0,74.45-5.5,83.51-34.52,5.17-16.53-4.88-31.3-17.61-49.99-15.56-22.86-34.93-51.3-35.33-95.77-.3-33.58,7.45-83.51,30.26-113.71,0,0-16.81,10.82-25.84,40.54-9.79,32.5-10.22,64.77-10.15,73.23.41,46.2,20.32,75.45,36.32,98.94,11.86,17.41,21.22,31.16,16.88,45.05-9.44,30.21-65.59,31.24-89.3,30.26-11.22-.46-39.85-6.96-51.78-23.3-5.12-7-6.47-15.08-4.02-24,0,0-11.79,13.58-.61,27.38,13.29,18.19,43.59,25.13,56.18,25.64,3.57.14,7.44.24,11.5.24Z" fill="#87402c"/>
      <g>
        <path d="M857.94,1123.83c1.43-17.93,6.72-33.53,26.09-37.84,19.36-4.31,92.97.9,110.18,83.74-52.36-61.92-136.27-45.9-136.27-45.9Z" fill="#2d2d2d"/>
        <path d="M994.21,1169.73c-52.36-61.92-136.27-45.9-136.27-45.9.58-7.27,1.82-14.14,4.35-20.04,55.46-5.61,102.38,12.61,126.31,46.39,2.23,5.99,4.14,12.47,5.61,19.55Z" fill="#191919"/>
        <path d="M992.02,1171.58c-34.39-40.67-83.3-46.74-109.39-46.74-14.45,0-24.06,1.79-24.16,1.81l-3.69.7.3-3.75c1.3-16.17,5.68-35.38,28.32-40.41,3.33-.74,7.63-1.13,12.42-1.13,13.87,0,83.96,4.2,101.19,87.09l2.29,11.05-7.29-8.62ZM884.65,1088.79c-14.14,3.14-21.29,12.68-23.5,31.65,4.21-.57,11.75-1.33,21.49-1.33,25.21,0,70.95,5.49,106.1,40.47-19.85-68.17-80.44-71.78-92.91-71.78-4.31,0-8.28.36-11.17,1Z"/>
      </g>
      <g>
        <path d="M698.28,1126.27c-.81-18.64-5.71-35.01-25.62-40.2-19.91-5.19-96.4-2.56-117.37,82.65,56.6-62.21,142.98-42.45,142.98-42.45Z" fill="#2d2d2d"/>
        <path d="M695.55,1108.31c1.67,5.49,2.45,11.58,2.73,17.96,0,0-86.38-19.76-142.98,42.45,1.2-4.87,2.6-9.43,4.13-13.77,24.89-32.78,66.13-52.16,136.12-46.64Z" fill="#191919"/>
        <path d="M552.52,1168.04c15.68-63.73,64.35-86.44,104.67-86.44,6.24,0,12,.6,16.2,1.7,23.21,6.05,27.03,26.08,27.75,42.85l.16,3.75-3.66-.84c-.13-.03-12.99-2.91-31.66-2.91-31.06,0-75.1,7.72-108.56,44.5l-7.6,8.35,2.7-10.96ZM695.2,1122.76c-1.56-19.89-8.64-30.11-23.26-33.92-3.69-.96-9.07-1.52-14.76-1.52-17.61,0-74.43,5.35-96.06,71.42,33.65-31.43,75.04-38.32,104.86-38.32,13.53,0,23.97,1.43,29.22,2.34Z"/>
      </g>
      <g>
        <path d="M986.23,1283.17c9.53-24.72-10.96-127.98-72.48-125.29-35.87-.05-68.16,79.5-50.97,139.45,8.22,26.75,106.26,30.43,123.45-14.16Z" fill="#eca77f"/>
        <path d="M986.23,1288.39c9.53-20.92-10.96-108.33-72.48-106.06-35.87-.05-68.16,67.29-50.97,118.04,8.22,22.65,106.26,25.76,123.45-11.98Z"/>
        <path d="M983.69,1289.98c9.15-19.76-10.52-102.32-69.57-100.17-34.42-.04-65.41,63.56-48.91,111.49,7.89,21.39,101.99,24.33,118.48-11.32Z" fill="#fff"/>
        <path d="M985.09,1266.58c1.33,10.09.82,18.61-1.4,23.4-16.49,35.64-110.59,32.71-118.48,11.32-4.38-12.74-5.39-26.58-3.89-40.04,26.57,40.31,101.64,42.76,123.77,5.32Z" fill="#dbdbdb"/>
        <path d="M909.3,1319.89c-19.77-.8-42.44-5.83-46.8-17.66-11.4-33.1-.36-70.9,14.73-92.01,10.72-15.01,23.81-23.27,36.76-23.27h.04c28.34-1.06,46.26,16.55,56.2,31.5,16.52,24.83,22.2,59.49,16.07,72.74h0c-9.34,20.18-41.38,28.83-70.97,28.83-2.02,0-4.03-.04-6.02-.12ZM981.09,1288.78c4.74-10.25.92-42.25-15.65-67.15-9.13-13.72-25.46-29.88-51.32-28.94h-.03c-11.15,0-22.58,7.41-32.2,20.87-14.25,19.95-24.71,55.63-13.99,86.76,2.68,7.28,19.8,12.98,41.63,13.85,28.27,1.14,62.74-6.33,71.56-25.38h0Z"/>
      </g>
      <g>
        <g>
          <path d="M910.24,1238.19c-13.59-.04-24.52,15.31-24.43,34.28.1,18.97,11.2,34.37,24.78,34.41,13.59.04,24.52-15.31,24.42-34.27-.1-18.97-11.19-34.38-24.77-34.42Z" fill="#4f1900"/>
          <path d="M904.79,1287.02c-7.1-1.47-12.6-5.35-17.5-10.23,1.05,16.8,11.16,30.04,23.43,30.08,12.75.04,23.02-14.21,23.18-31.93-6.74,9.5-17.78,13.14-29.11,12.08Z" fill="#9c3c10"/>
          <path d="M910.58,1309.75c-15.13-.05-27.53-16.76-27.64-37.27-.06-11.8,4.06-23,10.99-29.95,4.71-4.71,10.33-7.2,16.25-7.2h.06c15.13.05,27.53,16.77,27.63,37.27.06,11.8-4.05,23-10.99,29.95-4.7,4.71-10.32,7.2-16.25,7.2h-.06ZM910.24,1241.06c-4.31.24-8.62,1.9-12.24,5.52-5.88,5.9-9.37,15.57-9.32,25.88.09,17.36,9.92,31.52,21.91,31.56h.05c4.37,0,8.59-1.91,12.19-5.52,5.88-5.89,9.37-15.57,9.31-25.87-.09-17.37-9.92-31.53-21.91-31.56h0Z" fill="#140600"/>
        </g>
        <path d="M908.79,1253.88c-7.91-.02-14.28,9.39-14.22,21.02.06,11.63,6.52,21.09,14.44,21.11,7.91.02,14.28-9.39,14.22-21.02-.06-11.64-6.53-21.09-14.44-21.11Z"/>
        <path d="M915.62,1252.76c-4.57-.47-8.59,2.95-8.97,7.65-.39,4.69,3.01,8.88,7.59,9.35,4.57.47,8.59-2.96,8.98-7.65.38-4.69-3.02-8.88-7.59-9.35Z" fill="#fff"/>
        <path d="M901.67,1283.2c-2.11-.21-3.95,1.36-4.13,3.52-.18,2.16,1.39,4.08,3.49,4.3,2.11.22,3.95-1.36,4.13-3.52.18-2.16-1.39-4.09-3.49-4.3Z" fill="#fff"/>
      </g>
      <g>
        <path d="M711.46,1299.76c9.27-24.41-11.78-125.96-72.73-122.86-35.54.21-66.96,78.78-49.5,137.69,8.34,26.29,105.52,29.2,122.23-14.83Z" fill="#eca77f"/>
        <path d="M711.5,1305.33c9.3-20.36-11.63-104.96-72.58-102.31-35.55.22-67.06,65.74-49.67,114.82,8.3,21.9,105.48,24.21,122.25-12.51Z"/>
        <path d="M709.51,1307.13c9.01-19.06-11.23-98.24-70.27-95.74-34.42.21-64.96,61.55-48.13,107.48,8.04,20.5,102.16,22.63,118.4-11.74Z" fill="#fff"/>
        <path d="M708.01,1271.82c4.23,15.04,4.6,28.74,1.5,35.31-16.25,34.37-110.36,32.24-118.4,11.74-2.52-6.89-3.96-14.12-4.5-21.44,27.34,29.37,111.67,14.55,121.41-25.61Z" fill="#dbdbdb"/>
        <path d="M634.9,1336.52c-19.57-.67-42.07-5.38-46.49-16.66-11.34-30.94-1.71-65.98,12.88-86.99,10.84-15.62,24.31-24.26,37.83-24.34,29.4-1.24,47.69,16.68,57.81,31.94,15.8,23.81,21.04,55.48,15.17,67.9h0c-9.34,19.75-41.92,28.24-71.87,28.24-1.79,0-3.57-.03-5.33-.09ZM706.91,1305.9c4.4-9.3.75-38.88-14.77-62.27-9.31-14.03-26.17-30.47-52.89-29.38-11.53.07-23.65,8.05-33.26,21.88-13.73,19.79-22.83,52.74-12.22,81.68,2.7,6.89,19.69,12.22,41.32,12.96,28.47.99,63.08-6.41,71.81-24.87h0Z"/>
      </g>
      <g>
        <g>
          <path d="M638.37,1256.22c-13.59-.04-24.52,15.31-24.43,34.28.1,18.96,11.19,34.37,24.78,34.41,13.58.04,24.52-15.31,24.42-34.27-.1-18.97-11.19-34.38-24.77-34.41Z" fill="#4f1900"/>
          <path d="M632.91,1305.05c-7.1-1.47-12.6-5.35-17.5-10.23,1.04,16.8,11.16,30.04,23.43,30.08,12.75.04,23.02-14.21,23.18-31.93-6.73,9.5-17.78,13.14-29.1,12.08Z" fill="#9c3c10"/>
          <path d="M638.71,1327.78c-15.13-.05-27.53-16.77-27.63-37.27-.05-11.8,4.06-23,11-29.95,4.7-4.72,10.32-7.2,16.25-7.2h.05c15.14.05,27.53,16.76,27.63,37.27.06,11.8-4.05,23-10.99,29.95-4.7,4.71-10.32,7.2-16.25,7.2h-.06ZM638.37,1259.09c-4.31.24-8.62,1.9-12.24,5.52-5.88,5.9-9.37,15.57-9.32,25.88.09,17.37,9.92,31.52,21.92,31.56h.05c4.37,0,8.59-1.91,12.19-5.52,5.88-5.89,9.36-15.57,9.31-25.87-.09-17.37-9.92-31.53-21.91-31.56h0Z" fill="#140600"/>
        </g>
        <path d="M636.98,1272.27c-7.91-.02-14.28,9.39-14.22,21.02.06,11.63,6.52,21.09,14.44,21.11,7.91.02,14.28-9.39,14.22-21.02-.06-11.64-6.53-21.09-14.44-21.11Z"/>
        <path d="M643.81,1270.39c-4.57-.47-8.59,2.95-8.97,7.65-.38,4.69,3.01,8.87,7.59,9.34,4.57.47,8.59-2.96,8.98-7.65.38-4.7-3.02-8.88-7.59-9.35Z" fill="#fff"/>
        <path d="M629.85,1301.59c-2.11-.21-3.95,1.36-4.13,3.52-.18,2.16,1.39,4.09,3.49,4.31,2.11.21,3.95-1.36,4.13-3.52.18-2.16-1.39-4.09-3.49-4.3Z" fill="#fff"/>
      </g>
      <g>
        <path d="M928.23,1473.11c-40.16,25.82-91.38,37.94-152.04,37.3-44.71-.48-109.01-13.63-154.2-50.21,20.8,26.54,70.93,86.85,91.08,108.3,27.97,29.76,72.8,45.9,108.3,27.42,33.71-17.22,39.57-40.32,67.89-74.75,16.67-21.59,38.97-48.05,38.97-48.05Z" fill="#870000"/>
        <path d="M798,1524.27c19.78,14.83,26.01,48.41,24.03,70.45-2.15,1.3-12.19,4.67-14.83,5.33-29.77,7.46-58.21.79-84.77-22.64,5.28-50.76,42.65-70.65,75.56-53.15Z" fill="#360000"/>
        <g>
          <g>
            <path d="M836.31,1586.6c-4.36,3.28-9.23,6.39-14.95,9.31-29.34,15.28-65.03,6.87-92.32-13.29,28.68-11.12,78.2-11.54,107.27,3.99Z" fill="#ff9f9f"/>
            <path d="M729.04,1582.61c5.78-2.24,12.43-4.03,19.56-5.35,14.78,16.38,36.64,22.5,57.69,24.3-25.89,6.46-54.48-2.12-77.25-18.94Z" fill="#e88989"/>
            <path d="M727.34,1584.92l-4.19-3.1,4.86-1.88c28.52-11.06,79.39-12.05,109.66,4.13l3.97,2.12-3.59,2.7c-4.79,3.61-9.82,6.74-15.35,9.56-10.47,5.45-22.16,8.12-34.32,8.12-20.21,0-41.72-7.38-61.03-21.65ZM735.25,1583.48c28.14,18.83,60.21,22.69,84.81,9.88,3.79-1.93,7.32-4.01,10.69-6.3-27.36-12.41-68.93-11.99-95.5-3.58Z" fill="#bf5858"/>
          </g>
          <g>
            <path d="M790.29,1545.78c-68.68-1.2-117.92-38.63-141.37-67.56,41.49,22.99,90.87,31.79,127.27,32.18,46.19.49,86.87-6.47,121.4-21.2-17.65,24.77-45.19,57.66-107.29,56.57Z" fill="#fff"/>
            <path d="M790.29,1545.78c-68.68-1.2-117.92-38.63-141.37-67.56,34.91,32.35,101.51,57.04,142.63,57.04,52.62,0,75.18-19.94,106.04-46.06-17.65,24.77-45.19,57.66-107.29,56.57Z" fill="#e5e5e5"/>
            <path d="M790.24,1548.65h0c-82.75-1.44-130.8-52.88-143.55-68.62l-9.31-11.48,12.93,7.16c35.1,19.46,82.17,31.35,125.91,31.82,45.94.52,86.46-6.56,120.24-20.97l9.38-4-5.92,8.3c-13.43,18.86-41.17,57.81-106.74,57.81-.97,0-1.95,0-2.93-.03ZM776.15,1513.27c-39.15-.42-80.96-9.83-114.86-25.56,27.44,27.76,72.87,54.22,129.05,55.2h0c51.61.91,78.7-21.25,98.91-47.29-32.5,12.17-70.49,18.11-113.09,17.65Z" fill="#bcc3c4"/>
          </g>
        </g>
        <path d="M710.98,1570.46c-20.3-21.61-70.49-82.01-91.25-108.49l2.26-1.77,1.81-2.23c44.24,35.82,107.74,49.09,152.42,49.57,60.89.68,111.43-11.75,150.46-36.84l2.69,2.17,1.05,2.09c-.22.26-22.45,26.66-38.94,48.03-8.85,10.75-15.57,20.52-21.51,29.14-13.17,19.12-23.56,34.22-47.28,46.33-11.11,5.79-22.75,8.3-34.34,8.3-29.49,0-58.58-16.29-77.38-36.3ZM776.15,1513.27c-40.22-.43-95.42-11.05-139.02-38.7,24.03,29.71,61.27,74.13,78.02,91.96,24.75,26.34,68.13,45.97,104.9,26.82,22.44-11.46,31.98-25.31,45.18-44.49,6-8.71,12.8-18.59,21.74-29.46,9.35-12.1,20.55-25.85,28.56-35.54-37.77,20.11-84.56,29.98-139.4,29.41Z" fill="#87402c"/>
      </g>
      <g>
        <g>
          <path d="M995.71,1058.09c-137.7-48.05-152.75-173.26-152.75-173.26,0,0,10.69,64.21-144.76,144.03-155.45,79.82-320.7,249.58-369.29,324.2-13.89,8.68-176.62-232.23-134.97-421.38,41.65-189.15,182.49-319.3,504.25-338.39,95.44-5.21,155.17,32.97,155.17,32.97,0,0,189.15-24.3,293.27,194.35,104.12,218.65-86.03,413.85-129.41,502.35-2.51-20.65-5.97-45.65-5.47-52.33l7.52-80.87c2.08-37.49-5.16-90.33-23.56-131.68Z" fill="#c1005b"/>
          <path d="M1038.05,1139.12c7.64,22.92,30.78,23.57,42.01,12.35,26.73-28.5,6.47-125.7-19.24-186.43,5.73,22.92,51.71,69.77,74.18,48.06,26.63-28.75-15.82-129.11-55.92-174.94,38.46,36.57,85.72,84.94,86.44,42.69.9-.45,1.66-.99,2.45-1.51,49.55,194.39-111.29,363.15-150.74,443.64-2.51-20.65-5.97-45.65-5.47-52.33l7.52-80.87c1.71-30.9-4.49-87.65-23.56-131.68,22.46,18.61,30.74,48.56,42.34,81.03Z" fill="#a80058"/>
          <path d="M976.1,703.32c-36.78,9.67-49.01,36.34-63.35,47.09,34.42,5.74,64.79,12.67,87.74,41.36-28.69-5.74-77.94-11.24-81.04,7.17-2.87,13.2,40.88,29.17,58.06,72.66-40.16-28.69-106.11-27.72-152.01-10.5-43.27-2.63-97.33,7.89-143.23,13.63,28.69-34.43,82.27-35.62,99.48-64.31,11.47-34.42-54.51-42.22-88.93-53.7,37.03-11.3,87.5,4.45,94.31-9.18,6.81-13.63-104.59-76.98-156.23-105.67,69.69,8.61,143.32,46.26,213.91,82.84,18.46,9.23,78.94-37.89,131.3-21.4Z" fill="#a80058"/>
          <path d="M842.99,885.07c-.01-.11-.03-.24-.03-.24,0,0,.01.09.03.24Z" fill="#d3dce0"/>
          <path d="M193.94,931.69c22.58-102.55,74.42-187.71,168.35-247.28-49.16,44.44-100.28,105.45-79.72,149.92,43.03,65.02,194.12-68.39,349.99-69.81-91.08,38.01-276.46,159-229.5,218.03,40.16,57.37,123.72-49.13,225.44-79.13-49.32,55.12-158.7,151.39-123.12,181.51,19.13,16.19,69.81-18.23,138.18-59.16,86.89-52.01,146.01-45.13,212.77-180.92,11.47,97.54,71.18,177.5,162.98,217.67-12-1.95-17.14-4.35-31.05-7.23-128.01-48.86-144.64-165.39-145.28-170.22-.02-.15-.03-.24-.03-.24,0,0,.02.13.03.24.5,4.16,5.38,66.68-144.79,143.8-155.45,79.82-320.7,249.58-369.29,324.2-13.89,8.68-176.62-232.22-134.97-421.38Z" fill="#a80058"/>
          <path d="M328.05,1356.17c.8,0,1.6-.19,2.37-.67l.89-.87c47.1-72.33,210.41-242.19,368.19-323.21,111.05-57.02,138.32-106.21,144.67-130.66,10.47,33.57,44.58,113.47,139.87,154.32,18.94,9.94,35.26,7.43,35.26,7.43-6.45-2.25-28.19-10.61-34.14-13.2-118.14-51.3-139.19-163.79-139.4-164.98l-5.66.97c.09.61,7.87,63.41-143.24,141.01-157.72,80.99-321,250.34-369.51,323.85-2.62-1.31-10.39-7.98-25.05-28.75-50.42-71.44-137.38-244.71-105.59-389.12,46-208.89,210.08-318.85,501.62-336.14,93.26-5.08,152.86,32.15,153.46,32.53l.87.56,1.04-.13c1.88-.26,188.35-21.39,290.31,192.74,82.85,173.98-20.99,331.19-89.71,435.21-15.46,23.4-28.96,43.85-37.74,60.78-.11.42,1.17,9,1.3,10.64l1.9-4.24c8.49-17.33,22.78-38.96,39.33-64.01,69.43-105.1,174.34-263.93,90.1-440.83-99.84-209.67-279.88-197.54-295.2-196.08-7.83-4.65-66.9-37.78-155.99-32.88-294.48,17.47-460.28,128.89-506.9,340.64-39.45,179.15,102.24,402.22,131.65,422.97.86.61,3.01,2.12,5.26,2.12Z" fill="#54002c"/>
        </g>
        <path d="M835.69,762.33l3.87-4.23c-1.41-1.29-142.83-128.83-321.34-141.25l-.4,5.72c176.47,12.28,316.47,138.49,317.87,139.76Z" fill="#54002c"/>
        <path d="M258.45,1259.45l5.66-.97c-20.85-121.57,5.92-227.2,81.85-322.93,71.56-90.22,282.76-228.45,469.58-155.46l2.09-5.35c-189.62-74.08-403.69,65.86-476.16,157.24-77,97.08-104.15,204.19-83.02,327.46Z" fill="#54002c"/>
        <path d="M302.04,1323.12c38.99-110.91,112.19-225.67,200.85-314.88,70.37-70.8,181.95-157.12,313.9-166.27l-.4-5.73c-133.72,9.28-246.5,96.45-317.57,167.95-89.24,89.78-162.93,205.33-202.19,317.02l5.41,1.9Z" fill="#54002c"/>
        <path d="M1099.31,1197.47c16.02-192.13-63.32-331.91-218.22-384.03l-1.83,5.44c152.2,51.21,230.44,189.14,214.66,378.42l5.4.17Z" fill="#54002c"/>
        <path d="M1167.28,1025.77l5.73-.28c-3.77-77.66-44.46-151.19-111.64-201.71-58.41-43.93-128.09-63.31-181.86-50.57l1.32,5.58c52.15-12.35,120.01,6.64,177.09,49.57,65.81,49.5,105.67,121.45,109.36,197.41Z" fill="#54002c"/>
        <path d="M1122.26,781.47l4.53-3.52c-38.47-49.51-83.11-75.78-132.68-78.09-59.01-2.72-111.37,29.74-138.27,58.39l4.19,3.93c26.06-27.76,76.71-59.26,133.81-56.59,47.81,2.23,91.02,27.75,128.41,75.88Z" fill="#54002c"/>
        <g>
          <path d="M851.97,769.14c105.62-63.64,260.58-387.6,282.1-516.7,21.51-129.09,5.74-203.68-152.04-213.72-72.83-66.07-177.87-27.25-218.03,8.61-40.16,35.86-61.68,109.01-55.94,147.74-12.91,41.6,2.87,91.8,22.95,114.75,0,45.9,36.82,58.81,61.44,50.2-18.41,77.46-21.88,324.31,36.1,400.19,9.08,3.11,23.43,8.93,23.43,8.93Z" fill="#fe0000"/>
          <path d="M1044.82,47.84c98.9,25.04,107.47,95.26,89.24,204.6-12.91,77.45-73.85,225.03-143.35,344.46,59.98-129.3,119.9-285.28,129.41-369.15,8.75-77.15,7.31-130.7-75.3-179.91Z" fill="#ff7878"/>
          <path d="M1009.81,182.51c-6.1-114.39-44.11-166.03-127.66-167.46-59.7-1.02-86.8,14.35-121.39,35.43,1.08-1.05,2.12-2.17,3.23-3.15,40.16-35.86,145.19-74.68,218.03-8.61,1.99.13,3.81.33,5.75.48,18.99,41.8,31.87,99.13,22.05,143.32Z" fill="#ff7878"/>
          <path d="M919.44,523.54c35.14-96.82,87.31-237.95,91.26-356.8,1.48-44.45-4.72-98.85-31.7-130.58,1,.86,2.02,1.67,3.01,2.56,17.05,1.09,32.35,2.97,46.21,5.55,40.58,161.44-29.89,325.79-108.79,479.27Z" fill="#c10000"/>
          <path d="M708.05,195.07c-4.4-29.67,7.25-79.49,30.97-117.33-2.01,6.76-7.12,20.5,2.08,25.05,9.2,4.54,29.17-9.56,46.38-15.3-28.69,28.69-63.83,97.84-24.39,119.06,39.45,21.21,41.6-73.15,58.81-119.06,51.64,45.9,63.11,120.49,45.9,183.6-32.17,166.23-74.35,337.48-23.52,495-4.82-1.89-11-4.25-15.75-5.88-57.98-75.88-54.51-322.74-36.1-400.19-24.62,8.61-61.44-4.3-61.44-50.2-20.08-22.95-35.86-73.15-22.95-114.75Z" fill="#c10000"/>
          <path d="M850.89,771.8c-.15-.06-14.38-5.82-23.28-8.87l-.83-.28-.53-.69c-57.19-74.86-55.86-312.65-37.68-397.83-13.49,3.15-28.17.42-39.41-7.55-9.47-6.72-20.73-20.08-21.04-45.69-20.82-24.54-35.36-75.3-23.02-116.05-5.82-41.6,17.17-114.12,56.96-149.66,40.52-36.18,146.75-75.82,221.12-9.26,68.64,4.5,112.08,21.02,136.64,51.97,32.37,40.77,27.32,103.4,17.05,165.03-22.41,134.44-180.47,456.63-283.45,518.68l-1.23.74-1.33-.54ZM765.9,49.46c-38.06,33.98-60.83,105.95-55.01,145.18l.09.65-.19.62c-12.23,39.42,2.09,88.83,22.37,112.01l.71.81v1.08c0,23.86,10.13,36.06,18.63,42.09,11.09,7.87,26.04,9.94,39,5.41l4.95-1.73-1.21,5.1c-18.41,77.44-20.7,322.59,35.07,397.1,7.39,2.57,17.74,6.68,21.4,8.15,101.94-63.2,257.37-380.96,279.54-513.97,13.75-82.49,9.14-128.99-15.89-160.51-23.61-29.74-66.03-45.58-133.51-49.88l-1-.07-.74-.67c-28.26-25.64-61.41-35.17-93.62-35.17-49.49,0-96.76,22.53-120.57,43.8Z" fill="#420000"/>
        </g>
        <path d="M850.52,756.72c3.19-38.51,28.67-109.69,58.17-192.11,64.29-179.64,152.34-425.66,75.62-527.62l-4.58,3.45c74.86,99.49-12.59,343.83-76.44,522.24-29.63,82.8-55.22,154.3-58.48,193.56l5.72.48Z" fill="#420000"/>
        <path d="M795.26,360.52c.9-5.07,3.02-14.62,5.69-26.7,8.93-40.29,24.5-110.55,29.03-165.9,3.57-39.92-7.8-60.3-7.8-60.3,12.81,46.02-13.97,166.88-26.83,224.96-2.69,12.15-4.82,21.74-5.74,26.94l5.65,1Z" fill="#420000"/>
        <path d="M710.79,195.93c10.51-33.43,44.76-79.63,63.73-96.75,0,0-15.9,5.7-30.93,26.76-15.75,21.03-31.62,47.13-38.27,68.27l5.48,1.72Z" fill="#420000"/>
        <path d="M733.87,309.89c.91-35.49,11.56-65.43,29.23-82.14,0,0-16.25,6.32-24.47,27.33-6.31,15.63-9.97,34.3-10.5,54.66l5.74.15Z" fill="#420000"/>
        <g>
          <ellipse cx="847.67" cy="824.29" rx="55.22" ry="76.74" fill="#f4ba00"/>
          <path d="M839.56,758.63s49.02-4.69,54.94,61.6c4.6-14.75-3.2-67.99-54.94-61.6Z" fill="#f3ff18"/>
          <path d="M789.57,824.28c0-43.9,26.06-79.61,58.09-79.61,32.03,0,58.09,35.71,58.09,79.61,0,43.9-26.06,79.61-58.09,79.61-32.04,0-58.09-35.71-58.09-79.61ZM795.31,824.28c0,40.73,23.48,73.87,52.36,73.87,28.87,0,52.35-33.14,52.35-73.87,0-40.73-23.49-73.87-52.35-73.87-28.87,0-52.36,33.14-52.36,73.87Z" fill="#af5200"/>
        </g>
        <g>
          <path d="M816.59,824.29c0,30.46,15.84,55.15,35.38,55.15s35.38-24.69,35.38-55.15c0-30.46-15.84-55.15-35.38-55.15-3.25,0-6.39.68-9.37,1.95-14.99,6.4-26.01,27.79-26.01,53.19Z" fill="#a80000"/>
          <path d="M829,817.68c0,26.81,13.06,48.54,29.17,48.54,16.11,0,29.17-21.73,29.17-48.54s-13.06-48.54-29.17-48.54c-2.68,0-5.27.6-7.73,1.72-12.36,5.64-21.45,24.46-21.45,46.82Z" fill="#c10000"/>
          <ellipse cx="866.07" cy="806.46" rx="9.79" ry="19.68" fill="#cd3333"/>
          <path d="M813.72,824.28c0-31.99,17.16-58.01,38.25-58.01s38.25,26.03,38.25,58.01-17.16,58.02-38.25,58.02-38.25-26.03-38.25-58.02ZM819.45,824.28c0,28.83,14.58,52.28,32.51,52.28s32.51-23.45,32.51-52.28-14.58-52.27-32.51-52.27-32.51,23.45-32.51,52.27Z" fill="#610000"/>
        </g>
      </g>
      <path d="M891.95,1645.76c7.27-19.35,12.04-24.23,12.09-24.28,0,0-9.68,1.55-17.46,22.26l5.37,2.02Z" fill="#87402c"/>
      <path d="M652.14,1683.26l3.75-4.34c-16.31-14.13-31.16-45.71-31.31-46.02,0,0,1.86,17.44,11.29,31.23,4.84,7.08,10.42,14.07,16.26,19.13Z" fill="#87402c"/>
      <path d="M934.54,1486.81s2.3-11.73-5.56-17.26c-7.85-5.53-18.57.91-18.57.91,9.46-1.18,21.04,4.62,24.12,16.35Z" fill="#87402c"/>
      <path d="M614.26,1473.02c2.46-7.79,15.53-16.26,23.87-17.14,0,0-9.37-5.15-18.46,2.08-7.3,5.81-5.41,15.06-5.41,15.06Z" fill="#87402c"/>
      <path d="M783.42,1647.57c12.86,0,24.55-2.29,34.71-6.07,14.89-4.52,20.06-17.85,20.06-17.85-24.51,20.14-72.88,30.5-128.55-6.63,0,0,6.6,11.17,21.96,18.78,18.58,8.34,36.08,11.77,51.82,11.77Z" fill="#87402c"/>
    </g>
  </g>
</svg>